<svg xmlns="http://www.w3.org/2000/svg" xmlns:xlink="http://www.w3.org/1999/xlink" width="300" zoomAndPan="magnify" viewBox="0 0 224.87999 179.999997" height="240" preserveAspectRatio="xMidYMid meet" version="1.0"><defs><clipPath id="4e52614015"><path d="M 2 0.046875 L 222 0.046875 L 222 179.949219 L 2 179.949219 Z M 2 0.046875 " clip-rule="nonzero"/></clipPath></defs><g clip-path="url(#4e52614015)"><path fill="#207bea" d="M 111.714844 0.046875 C 50.78125 0.046875 2.902344 37.769531 2.902344 84.195312 C 2.902344 107.410156 20.3125 130.625 39.171875 146.582031 C 37.722656 162.542969 13.058594 169.796875 2.902344 179.953125 C 24.664062 179.953125 50.78125 172.699219 65.289062 161.089844 C 76.894531 163.992188 100.109375 168.34375 113.164062 168.34375 C 174.101562 168.34375 221.976562 130.625 221.976562 84.195312 C 221.976562 37.769531 172.648438 0.046875 111.714844 0.046875 Z M 111.714844 0.046875 " fill-opacity="1" fill-rule="nonzero"/></g><path fill="#ffffff" d="M 112.269531 134.128906 C 83.488281 134.128906 60.15625 110.796875 60.15625 82.019531 C 60.160156 53.238281 83.488281 29.902344 112.269531 29.902344 C 141.050781 29.902344 164.382812 53.238281 164.382812 82.019531 C 164.382812 110.796875 141.050781 134.128906 112.269531 134.128906 Z M 112.269531 19.585938 C 78.265625 19.585938 50.707031 47.148438 50.707031 81.152344 C 50.703125 115.15625 78.265625 142.71875 112.269531 142.71875 C 146.273438 142.71875 173.835938 115.15625 173.835938 81.152344 C 173.835938 47.148438 146.273438 19.585938 112.269531 19.585938 " fill-opacity="1" fill-rule="nonzero"/><path fill="#ffffff" d="M 140.789062 81.113281 L 113.261719 35.460938 L 113.261719 68.582031 L 140.789062 81.113281 " fill-opacity="1" fill-rule="nonzero"/><path fill="#ffffff" d="M 113.261719 70.753906 L 113.261719 99.445312 L 140.652344 83.226562 L 113.261719 70.753906 " fill-opacity="1" fill-rule="nonzero"/><path fill="#ffffff" d="M 141.691406 86.707031 L 113.261719 103.5 L 113.261719 126.84375 L 141.691406 86.707031 " fill-opacity="1" fill-rule="nonzero"/><path fill="#ffffff" d="M 111.28125 35.460938 L 83.753906 81.109375 L 111.28125 68.582031 L 111.28125 35.460938 " fill-opacity="1" fill-rule="nonzero"/><path fill="#ffffff" d="M 111.28125 70.753906 L 83.886719 83.226562 L 111.28125 99.445312 L 111.28125 70.753906 " fill-opacity="1" fill-rule="nonzero"/><path fill="#ffffff" d="M 82.851562 86.707031 L 111.28125 126.84375 L 111.28125 103.5 L 82.851562 86.707031 " fill-opacity="1" fill-rule="nonzero"/></svg>