<svg xmlns="http://www.w3.org/2000/svg" xmlns:xlink="http://www.w3.org/1999/xlink" zoomAndPan="magnify" preserveAspectRatio="xMidYMid meet" version="1.0" viewBox="140 128.85 96 78"><defs><clipPath id="924c69c16f"><path d="M 140 128.851562 L 236 128.851562 L 236 206.851562 L 140 206.851562 Z M 140 128.851562 " clip-rule="nonzero"/></clipPath></defs><g clip-path="url(#924c69c16f)"><path fill="#ffffff" d="M 187.300781 128.851562 C 160.882812 128.851562 140.125 145.203125 140.125 165.332031 C 140.125 175.398438 147.671875 185.464844 155.847656 192.382812 C 155.21875 199.300781 144.527344 202.445312 140.125 206.851562 C 149.558594 206.851562 160.882812 203.703125 167.171875 198.671875 C 172.203125 199.929688 182.269531 201.816406 187.929688 201.816406 C 214.347656 201.816406 235.109375 185.464844 235.109375 165.332031 C 235.109375 145.203125 213.71875 128.851562 187.300781 128.851562 Z M 187.300781 128.851562 " fill-opacity="1" fill-rule="nonzero"/></g><path fill="#000000" d="M 187.394531 186.785156 C 174.960938 186.785156 164.878906 176.707031 164.878906 164.273438 C 164.878906 151.835938 174.960938 141.757812 187.394531 141.757812 C 199.828125 141.757812 209.910156 151.835938 209.910156 164.273438 C 209.910156 176.707031 199.828125 186.785156 187.394531 186.785156 Z M 187.394531 137.300781 C 172.703125 137.300781 160.796875 149.207031 160.796875 163.898438 C 160.796875 178.589844 172.703125 190.496094 187.394531 190.496094 C 202.085938 190.496094 213.992188 178.589844 213.992188 163.898438 C 213.992188 149.207031 202.085938 137.300781 187.394531 137.300781 " fill-opacity="1" fill-rule="nonzero"/><path fill="#000000" d="M 199.714844 163.882812 L 187.824219 144.15625 L 187.824219 158.46875 L 199.714844 163.882812 " fill-opacity="1" fill-rule="nonzero"/><path fill="#000000" d="M 187.824219 159.40625 L 187.824219 171.800781 L 199.65625 164.792969 L 187.824219 159.40625 " fill-opacity="1" fill-rule="nonzero"/><path fill="#000000" d="M 200.105469 166.296875 L 187.824219 173.554688 L 187.824219 183.640625 L 200.105469 166.296875 " fill-opacity="1" fill-rule="nonzero"/><path fill="#000000" d="M 186.96875 144.15625 L 175.074219 163.878906 L 186.96875 158.46875 L 186.96875 144.15625 " fill-opacity="1" fill-rule="nonzero"/><path fill="#000000" d="M 186.96875 159.40625 L 175.132812 164.792969 L 186.96875 171.800781 L 186.96875 159.40625 " fill-opacity="1" fill-rule="nonzero"/><path fill="#000000" d="M 174.683594 166.296875 L 186.96875 183.640625 L 186.96875 173.554688 L 174.683594 166.296875 " fill-opacity="1" fill-rule="nonzero"/></svg>