<svg xmlns="http://www.w3.org/2000/svg" xmlns:xlink="http://www.w3.org/1999/xlink" zoomAndPan="magnify" preserveAspectRatio="xMidYMid meet" version="1.0" viewBox="105.94 123.74 163.21 109.36"><defs><g/><clipPath id="3a0ff95285"><path d="M 140 123.742188 L 236 123.742188 L 236 201.742188 L 140 201.742188 Z M 140 123.742188 " clip-rule="nonzero"/></clipPath></defs><g clip-path="url(#3a0ff95285)"><path fill="#207bea" d="M 187.300781 123.742188 C 160.882812 123.742188 140.125 140.097656 140.125 160.226562 C 140.125 170.289062 147.671875 180.355469 155.847656 187.273438 C 155.21875 194.191406 144.527344 197.335938 140.125 201.742188 C 149.558594 201.742188 160.882812 198.597656 167.171875 193.5625 C 172.203125 194.820312 182.269531 196.707031 187.929688 196.707031 C 214.347656 196.707031 235.109375 180.355469 235.109375 160.226562 C 235.109375 140.097656 213.71875 123.742188 187.300781 123.742188 Z M 187.300781 123.742188 " fill-opacity="1" fill-rule="nonzero"/></g><path fill="#ffffff" d="M 187.394531 181.679688 C 174.960938 181.679688 164.878906 171.597656 164.878906 159.164062 C 164.878906 146.726562 174.960938 136.648438 187.394531 136.648438 C 199.828125 136.648438 209.910156 146.726562 209.910156 159.164062 C 209.910156 171.597656 199.828125 181.679688 187.394531 181.679688 Z M 187.394531 132.191406 C 172.703125 132.191406 160.796875 144.097656 160.796875 158.789062 C 160.796875 173.480469 172.703125 185.386719 187.394531 185.386719 C 202.085938 185.386719 213.992188 173.480469 213.992188 158.789062 C 213.992188 144.097656 202.085938 132.191406 187.394531 132.191406 " fill-opacity="1" fill-rule="nonzero"/><path fill="#ffffff" d="M 199.714844 158.773438 L 187.824219 139.046875 L 187.824219 153.359375 L 199.714844 158.773438 " fill-opacity="1" fill-rule="nonzero"/><path fill="#ffffff" d="M 187.824219 154.296875 L 187.824219 166.691406 L 199.65625 159.683594 L 187.824219 154.296875 " fill-opacity="1" fill-rule="nonzero"/><path fill="#ffffff" d="M 200.105469 161.1875 L 187.824219 168.445312 L 187.824219 178.53125 L 200.105469 161.1875 " fill-opacity="1" fill-rule="nonzero"/><path fill="#ffffff" d="M 186.96875 139.046875 L 175.074219 158.769531 L 186.96875 153.359375 L 186.96875 139.046875 " fill-opacity="1" fill-rule="nonzero"/><path fill="#ffffff" d="M 186.96875 154.296875 L 175.132812 159.683594 L 186.96875 166.691406 L 186.96875 154.296875 " fill-opacity="1" fill-rule="nonzero"/><path fill="#ffffff" d="M 174.683594 161.1875 L 186.96875 178.53125 L 186.96875 168.445312 L 174.683594 161.1875 " fill-opacity="1" fill-rule="nonzero"/><g fill="#207bea" fill-opacity="1"><g transform="translate(104.748536, 232.788326)"><g><path d="M 1.1875 -11.84375 C 1.1875 -14.175781 1.707031 -16.257812 2.75 -18.09375 C 3.800781 -19.9375 5.234375 -21.367188 7.046875 -22.390625 C 8.867188 -23.421875 10.910156 -23.9375 13.171875 -23.9375 C 15.816406 -23.9375 18.128906 -23.257812 20.109375 -21.90625 C 22.097656 -20.550781 23.488281 -18.675781 24.28125 -16.28125 L 18.828125 -16.28125 C 18.285156 -17.414062 17.519531 -18.265625 16.53125 -18.828125 C 15.550781 -19.390625 14.421875 -19.671875 13.140625 -19.671875 C 11.765625 -19.671875 10.539062 -19.347656 9.46875 -18.703125 C 8.394531 -18.066406 7.554688 -17.160156 6.953125 -15.984375 C 6.359375 -14.804688 6.0625 -13.425781 6.0625 -11.84375 C 6.0625 -10.289062 6.359375 -8.921875 6.953125 -7.734375 C 7.554688 -6.546875 8.394531 -5.628906 9.46875 -4.984375 C 10.539062 -4.347656 11.765625 -4.03125 13.140625 -4.03125 C 14.421875 -4.03125 15.550781 -4.316406 16.53125 -4.890625 C 17.519531 -5.460938 18.285156 -6.316406 18.828125 -7.453125 L 24.28125 -7.453125 C 23.488281 -5.035156 22.101562 -3.15625 20.125 -1.8125 C 18.15625 -0.46875 15.835938 0.203125 13.171875 0.203125 C 10.910156 0.203125 8.867188 -0.304688 7.046875 -1.328125 C 5.234375 -2.359375 3.800781 -3.785156 2.75 -5.609375 C 1.707031 -7.441406 1.1875 -9.519531 1.1875 -11.84375 Z M 1.1875 -11.84375 "/></g></g></g><g fill="#207bea" fill-opacity="1"><g transform="translate(130.063341, 232.788326)"><g><path d="M 1.125 -9.453125 C 1.125 -11.347656 1.5 -13.023438 2.25 -14.484375 C 3.007812 -15.953125 4.035156 -17.082031 5.328125 -17.875 C 6.628906 -18.664062 8.082031 -19.0625 9.6875 -19.0625 C 11.082031 -19.0625 12.304688 -18.78125 13.359375 -18.21875 C 14.410156 -17.65625 15.25 -16.941406 15.875 -16.078125 L 15.875 -18.765625 L 20.65625 -18.765625 L 20.65625 0 L 15.875 0 L 15.875 -2.75 C 15.269531 -1.863281 14.429688 -1.128906 13.359375 -0.546875 C 12.285156 0.0234375 11.050781 0.3125 9.65625 0.3125 C 8.070312 0.3125 6.628906 -0.09375 5.328125 -0.90625 C 4.035156 -1.726562 3.007812 -2.875 2.25 -4.34375 C 1.5 -5.820312 1.125 -7.523438 1.125 -9.453125 Z M 15.875 -9.375 C 15.875 -10.53125 15.648438 -11.519531 15.203125 -12.34375 C 14.753906 -13.164062 14.144531 -13.796875 13.375 -14.234375 C 12.601562 -14.671875 11.78125 -14.890625 10.90625 -14.890625 C 10.019531 -14.890625 9.203125 -14.675781 8.453125 -14.25 C 7.710938 -13.820312 7.109375 -13.195312 6.640625 -12.375 C 6.179688 -11.550781 5.953125 -10.578125 5.953125 -9.453125 C 5.953125 -8.316406 6.179688 -7.328125 6.640625 -6.484375 C 7.109375 -5.640625 7.71875 -4.988281 8.46875 -4.53125 C 9.226562 -4.082031 10.039062 -3.859375 10.90625 -3.859375 C 11.78125 -3.859375 12.601562 -4.078125 13.375 -4.515625 C 14.144531 -4.960938 14.753906 -5.597656 15.203125 -6.421875 C 15.648438 -7.242188 15.875 -8.226562 15.875 -9.375 Z M 15.875 -9.375 "/></g></g></g><g fill="#207bea" fill-opacity="1"><g transform="translate(152.332209, 232.788326)"><g><path d="M 9.515625 0.3125 C 7.984375 0.3125 6.609375 0.0351562 5.390625 -0.515625 C 4.171875 -1.078125 3.203125 -1.832031 2.484375 -2.78125 C 1.773438 -3.726562 1.390625 -4.773438 1.328125 -5.921875 L 6.09375 -5.921875 C 6.1875 -5.203125 6.539062 -4.601562 7.15625 -4.125 C 7.78125 -3.65625 8.554688 -3.421875 9.484375 -3.421875 C 10.378906 -3.421875 11.082031 -3.597656 11.59375 -3.953125 C 12.101562 -4.316406 12.359375 -4.78125 12.359375 -5.34375 C 12.359375 -5.957031 12.046875 -6.414062 11.421875 -6.71875 C 10.804688 -7.019531 9.820312 -7.351562 8.46875 -7.71875 C 7.0625 -8.0625 5.910156 -8.410156 5.015625 -8.765625 C 4.128906 -9.128906 3.363281 -9.679688 2.71875 -10.421875 C 2.082031 -11.171875 1.765625 -12.175781 1.765625 -13.4375 C 1.765625 -14.476562 2.0625 -15.425781 2.65625 -16.28125 C 3.257812 -17.144531 4.117188 -17.820312 5.234375 -18.3125 C 6.347656 -18.8125 7.660156 -19.0625 9.171875 -19.0625 C 11.410156 -19.0625 13.191406 -18.5 14.515625 -17.375 C 15.847656 -16.257812 16.585938 -14.753906 16.734375 -12.859375 L 12.1875 -12.859375 C 12.125 -13.609375 11.8125 -14.203125 11.25 -14.640625 C 10.695312 -15.078125 9.960938 -15.296875 9.046875 -15.296875 C 8.179688 -15.296875 7.515625 -15.140625 7.046875 -14.828125 C 6.585938 -14.515625 6.359375 -14.078125 6.359375 -13.515625 C 6.359375 -12.878906 6.675781 -12.394531 7.3125 -12.0625 C 7.945312 -11.738281 8.929688 -11.410156 10.265625 -11.078125 C 11.617188 -10.734375 12.734375 -10.378906 13.609375 -10.015625 C 14.492188 -9.660156 15.253906 -9.101562 15.890625 -8.34375 C 16.535156 -7.59375 16.867188 -6.59375 16.890625 -5.34375 C 16.890625 -4.257812 16.585938 -3.289062 15.984375 -2.4375 C 15.390625 -1.582031 14.535156 -0.910156 13.421875 -0.421875 C 12.304688 0.0664062 11.003906 0.3125 9.515625 0.3125 Z M 9.515625 0.3125 "/></g></g></g><g fill="#207bea" fill-opacity="1"><g transform="translate(170.099852, 232.788326)"><g><path d="M 12.90625 -19.03125 C 14.320312 -19.03125 15.582031 -18.71875 16.6875 -18.09375 C 17.800781 -17.476562 18.664062 -16.566406 19.28125 -15.359375 C 19.90625 -14.148438 20.21875 -12.695312 20.21875 -11 L 20.21875 0 L 15.46875 0 L 15.46875 -10.359375 C 15.46875 -11.847656 15.09375 -12.992188 14.34375 -13.796875 C 13.601562 -14.597656 12.59375 -15 11.3125 -15 C 10 -15 8.960938 -14.597656 8.203125 -13.796875 C 7.453125 -12.992188 7.078125 -11.847656 7.078125 -10.359375 L 7.078125 0 L 2.34375 0 L 2.34375 -25.0625 L 7.078125 -25.0625 L 7.078125 -16.421875 C 7.679688 -17.234375 8.488281 -17.867188 9.5 -18.328125 C 10.519531 -18.796875 11.65625 -19.03125 12.90625 -19.03125 Z M 12.90625 -19.03125 "/></g></g></g><g fill="#207bea" fill-opacity="1"><g transform="translate(191.79338, 232.788326)"><g><path d="M 22.546875 0 L 17.8125 0 L 7.078125 -16.21875 L 7.078125 0 L 2.34375 0 L 2.34375 -23.671875 L 7.078125 -23.671875 L 17.8125 -7.421875 L 17.8125 -23.671875 L 22.546875 -23.671875 Z M 22.546875 0 "/></g></g></g><g fill="#207bea" fill-opacity="1"><g transform="translate(215.99135, 232.788326)"><g><path d="M 10.671875 0.3125 C 8.859375 0.3125 7.226562 -0.0859375 5.78125 -0.890625 C 4.34375 -1.691406 3.210938 -2.828125 2.390625 -4.296875 C 1.566406 -5.765625 1.15625 -7.457031 1.15625 -9.375 C 1.15625 -11.289062 1.578125 -12.984375 2.421875 -14.453125 C 3.265625 -15.921875 4.421875 -17.054688 5.890625 -17.859375 C 7.359375 -18.660156 8.992188 -19.0625 10.796875 -19.0625 C 12.609375 -19.0625 14.242188 -18.660156 15.703125 -17.859375 C 17.171875 -17.054688 18.328125 -15.921875 19.171875 -14.453125 C 20.023438 -12.984375 20.453125 -11.289062 20.453125 -9.375 C 20.453125 -7.457031 20.015625 -5.765625 19.140625 -4.296875 C 18.273438 -2.828125 17.101562 -1.691406 15.625 -0.890625 C 14.144531 -0.0859375 12.492188 0.3125 10.671875 0.3125 Z M 10.671875 -3.828125 C 11.523438 -3.828125 12.328125 -4.035156 13.078125 -4.453125 C 13.835938 -4.867188 14.441406 -5.492188 14.890625 -6.328125 C 15.347656 -7.160156 15.578125 -8.175781 15.578125 -9.375 C 15.578125 -11.15625 15.109375 -12.523438 14.171875 -13.484375 C 13.234375 -14.453125 12.085938 -14.9375 10.734375 -14.9375 C 9.378906 -14.9375 8.242188 -14.453125 7.328125 -13.484375 C 6.410156 -12.523438 5.953125 -11.15625 5.953125 -9.375 C 5.953125 -7.59375 6.398438 -6.222656 7.296875 -5.265625 C 8.191406 -4.304688 9.316406 -3.828125 10.671875 -3.828125 Z M 10.671875 -3.828125 "/></g></g></g><g fill="#207bea" fill-opacity="1"><g transform="translate(236.906468, 232.788326)"><g><path d="M 7.859375 -14.859375 L 7.859375 -5.796875 C 7.859375 -5.160156 8.007812 -4.703125 8.3125 -4.421875 C 8.613281 -4.140625 9.128906 -4 9.859375 -4 L 12.046875 -4 L 12.046875 0 L 9.078125 0 C 5.078125 0 3.078125 -1.941406 3.078125 -5.828125 L 3.078125 -14.859375 L 0.84375 -14.859375 L 0.84375 -18.765625 L 3.078125 -18.765625 L 3.078125 -23.390625 L 7.859375 -23.390625 L 7.859375 -18.765625 L 12.046875 -18.765625 L 12.046875 -14.859375 Z M 7.859375 -14.859375 "/></g></g></g><g fill="#207bea" fill-opacity="1"><g transform="translate(249.360649, 232.788326)"><g><path d="M 19.78125 -9.78125 C 19.78125 -9.101562 19.734375 -8.492188 19.640625 -7.953125 L 5.921875 -7.953125 C 6.035156 -6.597656 6.507812 -5.535156 7.34375 -4.765625 C 8.175781 -4.003906 9.203125 -3.625 10.421875 -3.625 C 12.179688 -3.625 13.4375 -4.378906 14.1875 -5.890625 L 19.296875 -5.890625 C 18.753906 -4.085938 17.710938 -2.601562 16.171875 -1.4375 C 14.640625 -0.269531 12.757812 0.3125 10.53125 0.3125 C 8.726562 0.3125 7.109375 -0.0859375 5.671875 -0.890625 C 4.234375 -1.691406 3.113281 -2.828125 2.3125 -4.296875 C 1.519531 -5.765625 1.125 -7.457031 1.125 -9.375 C 1.125 -11.320312 1.515625 -13.023438 2.296875 -14.484375 C 3.085938 -15.953125 4.191406 -17.082031 5.609375 -17.875 C 7.035156 -18.664062 8.675781 -19.0625 10.53125 -19.0625 C 12.3125 -19.0625 13.90625 -18.675781 15.3125 -17.90625 C 16.726562 -17.144531 17.828125 -16.054688 18.609375 -14.640625 C 19.390625 -13.234375 19.78125 -11.613281 19.78125 -9.78125 Z M 14.859375 -11.140625 C 14.835938 -12.359375 14.394531 -13.332031 13.53125 -14.0625 C 12.675781 -14.800781 11.628906 -15.171875 10.390625 -15.171875 C 9.222656 -15.171875 8.238281 -14.8125 7.4375 -14.09375 C 6.632812 -13.382812 6.140625 -12.398438 5.953125 -11.140625 Z M 14.859375 -11.140625 "/></g></g></g></svg>